# xmcd CD database file
#
# Track frame offsets:
#	150
#	14100
#	40275
#	53662
#	65850
#	79762
#	92497
#	112467
#	142902
#	171185
#	192680
#	211790
#	243705
#	258380
#	288852
#	305482
#
# Disc length: 4512 seconds
#
# Revision: 3
# Processed by: cddbd v1.5.2PL0 Copyright (c) Steve Scherf et al.
# Submitted via: CDex 1.51
#
DISCID=f3119e10
DTITLE=Various Artist - Classic Jazz - The Fifties - Disc 2 of 2
DYEAR=2001
DGENRE=Jazz
TTITLE0=Count Basie and his Orchestra feat. Joe Williams - All Right, OK, You Win
TTITLE1=Lee Konitz and Warne Marsh - Background Music
TTITLE2=Thelonious Monk - Criss Cross
TTITLE3=Dizzy Gillespie - Lady Be Good
TTITLE4=Charlie Parker with Strings - I'll Remember April
TTITLE5=Betty Carter - I Can't Help It
TTITLE6=Miles Davis Quintet - Airregin
TTITLE7=Sonny Rollins Quartet - St. Thomas
TTITLE8=Art Blakey and the Jazz Messengers - Blues March
TTITLE9=John Coltrane - Giant Steps
TTITLE10=Ella Fitzgerald and Louis Armstrong - Let's Call the Whole Thing Off
TTITLE11=Modern Jazz Quartet - Django
TTITLE12=J.J. Johnson and Kai Winding - What Is This Thing Called Love
TTITLE13=Dave Brubeck Quartet - Blue Rondo á la Turk
TTITLE14=Ben Webster - Chelsea Bridge
TTITLE15=Charles Mingus - Better Git It in Your Soul
EXTD=YEAR: 2001
EXTT0=
EXTT1=
EXTT2=
EXTT3=
EXTT4=
EXTT5=
EXTT6=
EXTT7=
EXTT8=
EXTT9=
EXTT10=
EXTT11=
EXTT12=
EXTT13=
EXTT14=
EXTT15=
PLAYORDER=
